HIERARCHY
ROOT Hips
{
	OFFSET -222.377106 85.852226 44.453899
	CHANNELS 6 Xposition Yposition Zposition Zrotation Yrotation Xrotation 
	JOINT LeftUpLeg
	{
		OFFSET 0.103456 1.857826 10.548499
		CHANNELS 3 Zrotation Yrotation Xrotation
		JOINT LeftLeg
		{
			OFFSET 43.499996 -0.000023 -0.000006
			CHANNELS 3 Zrotation Yrotation Xrotation
			JOINT LeftFoot
			{
				OFFSET 42.372200 0.000015 -0.000002
				CHANNELS 3 Zrotation Yrotation Xrotation
				JOINT LeftToe
				{
					OFFSET 17.299997 -0.000001 -0.000006
					CHANNELS 3 Zrotation Yrotation Xrotation
					End Site
					{
						OFFSET 0.000000 0.000000 0.000000
					}
				}
			}
		}
	}
	JOINT RightUpLeg
	{
		OFFSET 0.103456 1.857830 -10.548502
		CHANNELS 3 Zrotation Yrotation Xrotation
		JOINT RightLeg
		{
			OFFSET 43.500038 -0.000023 0.000017
			CHANNELS 3 Zrotation Yrotation Xrotation
			JOINT RightFoot
			{
				OFFSET 42.372261 -0.000008 -0.000005
				CHANNELS 3 Zrotation Yrotation Xrotation
				JOINT RightToe
				{
					OFFSET 17.299994 -0.000005 0.000011
					CHANNELS 3 Zrotation Yrotation Xrotation
					End Site
					{
						OFFSET 0.000000 0.000000 0.000000
					}
				}
			}
		}
	}
	JOINT Spine
	{
		OFFSET 6.901970 -2.603732 -0.000003
		CHANNELS 3 Zrotation Yrotation Xrotation
		JOINT Spine1
		{
			OFFSET 12.588100 -0.000003 0.000008
			CHANNELS 3 Zrotation Yrotation Xrotation
			JOINT Spine2
			{
				OFFSET 12.343202 0.000005 -0.000010
				CHANNELS 3 Zrotation Yrotation Xrotation
				JOINT Neck
				{
					OFFSET 25.832899 -0.000006 0.000006
					CHANNELS 3 Zrotation Yrotation Xrotation
					JOINT Head
					{
						OFFSET 11.766598 0.000008 0.000002
						CHANNELS 3 Zrotation Yrotation Xrotation
						End Site
						{
							OFFSET 0.000000 0.000000 0.000000
						}
					}
				}
				JOINT LeftShoulder
				{
					OFFSET 19.745903 -1.480370 6.000103
					CHANNELS 3 Zrotation Yrotation Xrotation
					JOINT LeftArm
					{
						OFFSET 11.284132 -0.000008 -0.000018
						CHANNELS 3 Zrotation Yrotation Xrotation
						JOINT LeftForeArm
						{
							OFFSET 33.000053 0.000001 0.000027
							CHANNELS 3 Zrotation Yrotation Xrotation
							JOINT LeftHand
							{
								OFFSET 25.200003 0.000017 -0.000003
								CHANNELS 3 Zrotation Yrotation Xrotation
								End Site
								{
									OFFSET 0.000000 0.000000 0.000000
								}
							}
						}
					}
				}
				JOINT RightShoulder
				{
					OFFSET 19.746098 -1.480373 -6.000065
					CHANNELS 3 Zrotation Yrotation Xrotation
					JOINT RightArm
					{
						OFFSET 11.284152 -0.000018 -0.000010
						CHANNELS 3 Zrotation Yrotation Xrotation
						JOINT RightForeArm
						{
							OFFSET 33.000092 0.000018 0.000006
							CHANNELS 3 Zrotation Yrotation Xrotation
							JOINT RightHand
							{
								OFFSET 25.199759 0.000135 0.000423
								CHANNELS 3 Zrotation Yrotation Xrotation
								End Site
								{
									OFFSET 0.000000 0.000000 0.000000
								}
							}
						}
					}
				}
			}
		}
	}
}
MOTION
Frames: 8
Frame Time: 0.033333
-137.660202 78.430573 251.309998 83.285865 1.084033 174.020489 156.973648 -9.538303 162.569963 -70.444816 3.071659 -5.335771 106.061199 3.152373 -14.087220 21.454550 0.003093 -0.000001 118.508372 12.030702 -172.969910 -78.247289 -2.383616 -0.389755 66.277191 8.694573 21.752242 21.454551 -0.003106 -0.000020 9.643928 1.810299 -1.397232 9.236778 3.726168 -2.646804 8.918313 3.710259 -2.669259 -6.158303 0.052658 -10.075651 -14.883734 7.272592 -12.599565 126.067110 -79.681629 53.129289 -75.539918 22.196295 -51.029709 -119.204286 2.111402 3.429817 3.512144 1.645619 20.833282 149.124900 84.215345 -29.559279 -31.551728 -8.902241 50.932622 -124.629683 -2.744052 -3.655388 -4.740564 5.913793 -3.963289 
-137.713303 78.107109 254.056000 84.416002 0.919006 174.548093 158.324782 -12.057603 162.069789 -70.380550 3.153748 -3.948053 106.282695 2.250762 -14.874450 21.454555 0.003091 -0.000000 119.243560 14.460999 -176.297209 -78.782612 -2.519317 -7.946473 71.192503 14.899967 26.652609 21.454550 -0.003111 -0.000014 9.573279 1.489977 -1.217709 9.105907 3.070991 -2.315185 8.787591 3.057094 -2.333684 -5.630291 -1.321423 -10.100411 -13.782576 8.957599 -13.807361 129.464159 -79.911465 49.688359 -75.055972 23.733826 -50.065939 -120.196207 2.119188 3.469629 3.987121 1.082713 22.549048 154.585827 83.430959 -24.103722 -32.091627 -11.488691 49.598300 -126.369496 -2.857505 -3.715328 -4.794435 6.143528 -3.457312 
-137.777893 77.951057 256.902893 85.279071 0.658598 175.764700 158.940442 -14.662094 161.245904 -70.426408 3.872420 -2.120092 105.324802 0.886902 -15.471171 21.454550 0.003092 0.000000 120.897531 16.520599 179.255788 -76.871716 -2.215971 -7.979848 74.902143 13.223990 24.447417 21.454558 -0.003107 -0.000019 9.477888 1.265592 -1.112814 8.920966 2.613047 -2.125290 8.602768 2.600305 -2.141024 -5.357879 -3.031400 -9.873931 -12.733517 10.629402 -14.878232 134.502981 -80.216043 44.583701 -74.400916 25.385153 -48.899483 -120.998399 2.062217 3.505924 4.600619 1.587231 21.778330 156.638764 82.622483 -22.076988 -32.136364 -13.598131 47.355354 -127.742911 -2.822583 -3.770286 -4.749568 5.886589 -3.406644 
-138.071304 77.755989 259.662415 85.851598 0.745569 177.572091 158.596187 -17.175400 162.465202 -70.602545 3.907732 -0.426572 104.367592 -0.390681 -16.225531 21.454548 0.003097 -0.000000 123.401246 18.183809 175.135380 -73.081228 -2.237022 -1.566284 74.999678 7.529212 21.144529 21.454555 -0.003112 -0.000017 9.424823 1.200690 -1.049228 8.817154 2.477678 -2.004390 8.498937 2.465669 -2.019311 -5.540841 -4.152747 -9.752176 -11.861250 11.767440 -15.569811 139.113892 -80.315942 39.923193 -73.490609 26.439193 -47.624676 -121.644207 2.058054 3.532128 4.909954 2.355309 19.865730 159.780719 82.032450 -18.933095 -32.247977 -14.815958 44.860901 -128.570197 -2.693895 -3.810323 -5.043374 5.877338 -4.632712 
-138.344803 77.552719 262.495605 86.159264 0.604855 179.452702 158.241399 -19.296801 163.510426 -69.919178 4.016908 1.180785 103.797900 -1.576775 -16.980699 21.454560 0.003088 0.000001 126.269543 19.873701 171.566183 -68.037843 -3.023452 4.372133 73.115932 1.793218 15.327960 21.454568 -0.003105 -0.000016 9.363001 1.116830 -1.011789 8.695436 2.306374 -1.937202 8.377245 2.294772 -1.951089 -5.600644 -4.894581 -9.915555 -11.468568 12.575511 -16.301438 141.850530 -80.330961 37.158575 -72.669545 27.354856 -46.806648 -122.181525 2.042266 3.554665 5.103999 2.772526 18.770145 161.463145 81.697450 -17.247976 -32.209082 -15.864994 42.749232 -128.699916 -2.649842 -3.818211 -5.216935 5.976924 -4.802548 
-138.592804 77.455673 265.417786 86.164817 0.540193 -178.869704 157.849401 -21.252704 164.229167 -68.449601 4.349000 2.431562 103.250303 -2.555025 -17.990940 21.454553 0.003088 -0.000001 128.997493 21.097397 168.920345 -62.848812 -4.428571 7.692485 66.561341 -1.961215 9.126608 21.454557 -0.003110 -0.000017 9.278716 1.050830 -0.907513 8.529695 2.165540 -1.735439 8.211520 2.155159 -1.748479 -5.685123 -5.634664 -10.350461 -11.160432 13.276541 -17.264881 143.884068 -80.186564 35.114303 -72.077654 28.417074 -46.342782 -122.348700 2.153114 3.553725 5.078371 2.948589 18.802517 162.801862 81.487189 -15.903156 -31.888876 -16.761419 41.067513 -128.576904 -2.667374 -3.815784 -5.100726 5.789401 -4.507638 
-138.683105 77.134300 268.739288 86.311769 0.125124 -177.119209 157.696719 -22.844698 165.601311 -66.619165 4.457476 3.500265 102.715800 -3.445548 -19.586751 21.454553 0.003091 -0.000001 132.069795 22.518003 166.278401 -58.968370 -4.892567 8.197421 64.994455 -1.921167 9.813046 21.454563 -0.003109 -0.000015 9.273077 0.920453 -0.847728 8.520948 1.900682 -1.625630 8.202816 1.890967 -1.637072 -5.822445 -6.506507 -10.754212 -11.206791 14.112290 -18.367091 146.042654 -80.117101 32.936917 -71.826590 29.478547 -45.688515 -122.208600 2.169169 3.547046 5.053271 2.363765 18.618017 163.115764 81.371875 -15.590634 -31.417631 -17.236904 39.696219 -128.403609 -2.605718 -3.810057 -5.280709 5.644394 -4.766918 
-138.660400 76.738663 272.593811 86.310034 -0.424942 -174.904698 156.728690 -23.990100 168.673926 -64.907076 4.410918 4.009614 101.015199 -4.228044 -21.581130 21.454553 0.003087 -0.000000 135.291677 24.285294 164.699452 -56.271463 -5.174414 3.556782 65.795219 3.811052 16.043102 21.454563 -0.003107 -0.000016 9.263973 0.756501 -0.902440 8.503871 1.577130 -1.747036 8.185801 1.566689 -1.756520 -5.731026 -7.253962 -11.130051 -11.711032 14.663219 -19.367823 147.772195 -80.142359 31.185831 -71.750666 30.735086 -45.152916 -121.802504 2.191022 3.529348 4.834947 1.816976 17.938739 163.470715 81.295678 -15.234792 -31.087654 -17.590485 38.798719 -128.158487 -2.548611 -3.804701 -5.492664 6.245762 -5.175604 
